<?xml version="1.0" encoding="utf-8"?>
<!-- Generator: Adobe Illustrator 27.5.0, SVG Export Plug-In . SVG Version: 6.00 Build 0)  -->
<svg version="1.1" id="_x3C_Layer_x3E_" xmlns="http://www.w3.org/2000/svg" xmlns:xlink="http://www.w3.org/1999/xlink" x="0px"
	 y="0px" viewBox="0 0 2760 1840" style="enable-background:new 0 0 2760 1840;" xml:space="preserve">
<rect style="fill:#FFFFFF;" width="2760" height="1840"/>
<g>
	<g>
		<path style="fill:#EBF3FA;" d="M2513.037,1605.673c-133.636,0-2139.891,0.479-2141.016-3.006l-0.19-0.44
			c0,0-0.191-0.43-0.191-0.646c-0.744-1.742-386.327-157.054-132.159-504.458c133.207-182.07-104.595-460.819,178.532-706.781
			c443.672-385.432,867.068,89.313,1046.538,0c150.852-75.071,393.272-182.645,639.341-86.179
			c67.613,26.505,214.025,159.457,92.439,383.046c-60.752,111.72,208.833,124.691,307.448,243.393
			C2718.535,1189.099,2592.951,1605.673,2513.037,1605.673z"/>
	</g>
	<g style="opacity:0.5;">
		<g style="opacity:0.5;">
			<path style="fill:#AEC3FF;" d="M1764.321,802.321c0,0-25.764-204.075,46.289-347.662c9.575-19.082,37.899-15.519,42.63,5.302
				c0.079,0.347,0.155,0.698,0.23,1.055C1860.973,496.694,1784.466,674.167,1764.321,802.321z"/>
		</g>
		<g style="opacity:0.5;">
			<path style="fill:#AEC3FF;" d="M1766.128,862.134c0,0,39.417-272.935,184.934-425.586c8.872-9.309,23.75-10.446,33.382-1.924
				c6.271,5.55,10.949,15.498,9.859,33.123C1991.396,514.749,1835.206,709.473,1766.128,862.134z"/>
		</g>
	</g>
	<g style="opacity:0.4;">
		<g>
			<g>
				<path style="fill:#8C9DF4;" d="M462.227,934.617h86.334c7.598,0,13.757-6.158,13.757-13.756V557.504
					c0-7.598-6.159-13.756-13.757-13.756h-86.334c-7.598,0-13.756,6.158-13.756,13.756v363.357
					C448.471,928.459,454.629,934.617,462.227,934.617z"/>
			</g>
			<g>
				<path style="fill:#505ABA;" d="M532.077,850.315c0-14.737-11.946-26.684-26.684-26.684c-14.737,0-26.684,11.946-26.684,26.684
					c0,14.736,11.946,26.683,26.684,26.683C520.131,876.998,532.077,865.052,532.077,850.315z"/>
			</g>
			<g>
				<path style="fill:#FFFFFF;" d="M505.394,879.979c-16.271,0-29.509-13.238-29.509-29.51c0-16.271,13.238-29.508,29.509-29.508
					c16.271,0,29.509,13.237,29.509,29.508C534.902,866.74,521.665,879.979,505.394,879.979z M505.394,826.611
					c-13.156,0-23.858,10.702-23.858,23.857c0,13.156,10.702,23.858,23.858,23.858c13.156,0,23.858-10.702,23.858-23.858
					C529.252,837.313,518.55,826.611,505.394,826.611z"/>
			</g>
			<g>
				<path style="fill:#AEC3FF;" d="M477.124,781.343h56.509c2.806,0,5.081-2.276,5.081-5.082V566.717
					c0-2.807-2.275-5.082-5.081-5.082h-56.509c-2.807,0-5.081,2.275-5.081,5.082v209.544
					C472.043,779.066,474.317,781.343,477.124,781.343z"/>
			</g>
			<g>
				<path style="fill:#F99746;" d="M483.902,578.396H525.5c2.234,0,4.046-1.811,4.046-4.047v-0.717c0-2.235-1.812-4.047-4.046-4.047
					h-41.598c-2.234,0-4.047,1.812-4.047,4.047v0.717C479.855,576.585,481.668,578.396,483.902,578.396z"/>
			</g>
			<g>
				<g>
					<path style="fill:#505ABA;" d="M513.896,709.998v45.285c0,1.217,0.986,2.203,2.202,2.203l0,0c1.216,0,2.203-0.986,2.203-2.203
						v-45.285c0-1.217-0.987-2.203-2.203-2.203l0,0C514.883,707.795,513.896,708.781,513.896,709.998z"/>
				</g>
				<g>
					<path style="fill:#505ABA;" d="M513.896,647.694v45.285c0,1.216,0.986,2.203,2.202,2.203l0,0c1.216,0,2.203-0.987,2.203-2.203
						v-45.285c0-1.217-0.987-2.203-2.203-2.203l0,0C514.883,645.491,513.896,646.477,513.896,647.694z"/>
				</g>
				<g>
					<path style="fill:#505ABA;" d="M488.633,709.998v45.285c0,1.217,0.985,2.203,2.201,2.203l0,0c1.217,0,2.203-0.986,2.203-2.203
						v-45.285c0-1.217-0.986-2.203-2.203-2.203l0,0C489.618,707.795,488.633,708.781,488.633,709.998z"/>
				</g>
				<g>
					<path style="fill:#505ABA;" d="M488.633,647.694v45.285c0,1.216,0.985,2.203,2.201,2.203l0,0c1.217,0,2.203-0.987,2.203-2.203
						v-45.285c0-1.217-0.986-2.203-2.203-2.203l0,0C489.618,645.491,488.633,646.477,488.633,647.694z"/>
				</g>
				<g>
					<path style="fill:#505ABA;" d="M501.778,697.217v58.067c0,1.217,0.986,2.202,2.203,2.202l0,0c1.216,0,2.202-0.985,2.202-2.202
						v-58.067c0-1.216-0.986-2.202-2.202-2.202l0,0C502.765,695.015,501.778,696.001,501.778,697.217z"/>
				</g>
				<g>
					<path style="fill:#505ABA;" d="M501.778,618.888v58.067c0,1.216,0.986,2.202,2.203,2.202l0,0c1.216,0,2.202-0.986,2.202-2.202
						v-58.067c0-1.217-0.986-2.202-2.202-2.202l0,0C502.765,616.685,501.778,617.671,501.778,618.888z"/>
				</g>
			</g>
		</g>
		<g>
			<g>
				<path style="fill:#8C9DF4;" d="M604.206,934.617h86.336c7.596,0,13.756-6.158,13.756-13.756V557.504
					c0-7.598-6.16-13.756-13.756-13.756h-86.336c-7.597,0-13.756,6.158-13.756,13.756v363.357
					C590.45,928.459,596.609,934.617,604.206,934.617z"/>
			</g>
			<g>
				<path style="fill:#505ABA;" d="M674.058,850.315c0-14.737-11.947-26.684-26.683-26.684c-14.738,0-26.684,11.946-26.684,26.684
					c0,14.736,11.945,26.683,26.684,26.683C662.11,876.998,674.058,865.052,674.058,850.315z"/>
			</g>
			<g>
				<path style="fill:#FFFFFF;" d="M647.375,879.979c-16.273,0-29.51-13.238-29.51-29.51c0-16.271,13.237-29.508,29.51-29.508
					c16.271,0,29.508,13.237,29.508,29.508C676.883,866.74,663.646,879.979,647.375,879.979z M647.375,826.611
					c-13.157,0-23.859,10.702-23.859,23.857c0,13.156,10.702,23.858,23.859,23.858c13.154,0,23.856-10.702,23.856-23.858
					C671.231,837.313,660.529,826.611,647.375,826.611z"/>
			</g>
			<g>
				<path style="fill:#AEC3FF;" d="M619.104,781.343h56.508c2.807,0,5.082-2.276,5.082-5.082V566.717
					c0-2.807-2.275-5.082-5.082-5.082h-56.508c-2.807,0-5.082,2.275-5.082,5.082v209.544
					C614.022,779.066,616.298,781.343,619.104,781.343z"/>
			</g>
			<g>
				<path style="fill:#F99746;" d="M625.883,578.396h41.597c2.235,0,4.047-1.811,4.047-4.047v-0.717
					c0-2.235-1.812-4.047-4.047-4.047h-41.597c-2.235,0-4.047,1.812-4.047,4.047v0.717
					C621.836,576.585,623.647,578.396,625.883,578.396z"/>
			</g>
			<g>
				<g>
					<path style="fill:#505ABA;" d="M655.877,709.998v45.285c0,1.217,0.986,2.203,2.202,2.203l0,0c1.217,0,2.202-0.986,2.202-2.203
						v-45.285c0-1.217-0.985-2.203-2.202-2.203l0,0C656.863,707.795,655.877,708.781,655.877,709.998z"/>
				</g>
				<g>
					<path style="fill:#505ABA;" d="M655.877,647.694v45.285c0,1.216,0.986,2.203,2.202,2.203l0,0c1.217,0,2.202-0.987,2.202-2.203
						v-45.285c0-1.217-0.985-2.203-2.202-2.203l0,0C656.863,645.491,655.877,646.477,655.877,647.694z"/>
				</g>
				<g>
					<path style="fill:#505ABA;" d="M630.612,709.998v45.285c0,1.217,0.985,2.203,2.202,2.203l0,0c1.217,0,2.203-0.986,2.203-2.203
						v-45.285c0-1.217-0.986-2.203-2.203-2.203l0,0C631.598,707.795,630.612,708.781,630.612,709.998z"/>
				</g>
				<g>
					<path style="fill:#505ABA;" d="M630.612,647.694v45.285c0,1.216,0.985,2.203,2.202,2.203l0,0c1.217,0,2.203-0.987,2.203-2.203
						v-45.285c0-1.217-0.986-2.203-2.203-2.203l0,0C631.598,645.491,630.612,646.477,630.612,647.694z"/>
				</g>
				<g>
					<path style="fill:#505ABA;" d="M643.759,697.217v58.067c0,1.217,0.986,2.202,2.202,2.202l0,0c1.217,0,2.202-0.985,2.202-2.202
						v-58.067c0-1.216-0.985-2.202-2.202-2.202l0,0C644.745,695.015,643.759,696.001,643.759,697.217z"/>
				</g>
				<g>
					<path style="fill:#505ABA;" d="M643.759,618.888v58.067c0,1.216,0.986,2.202,2.202,2.202l0,0c1.217,0,2.202-0.986,2.202-2.202
						v-58.067c0-1.217-0.985-2.202-2.202-2.202l0,0C644.745,616.685,643.759,617.671,643.759,618.888z"/>
				</g>
			</g>
		</g>
		<g>
			<g>
				<path style="fill:#8C9DF4;" d="M748.898,934.617h86.336c7.597,0,13.756-6.158,13.756-13.756V557.504
					c0-7.598-6.159-13.756-13.756-13.756h-86.336c-7.597,0-13.756,6.158-13.756,13.756v363.357
					C735.143,928.459,741.302,934.617,748.898,934.617z"/>
			</g>
			<g>
				<path style="fill:#505ABA;" d="M818.75,850.315c0-14.737-11.946-26.684-26.684-26.684c-14.736,0-26.683,11.946-26.683,26.684
					c0,14.736,11.946,26.683,26.683,26.683C806.804,876.998,818.75,865.052,818.75,850.315z"/>
			</g>
			<g>
				<path style="fill:#FFFFFF;" d="M792.066,879.979c-16.272,0-29.509-13.238-29.509-29.51c0-16.271,13.237-29.508,29.509-29.508
					c16.271,0,29.509,13.237,29.509,29.508C821.575,866.74,808.338,879.979,792.066,879.979z M792.066,826.611
					c-13.155,0-23.857,10.702-23.857,23.857c0,13.156,10.702,23.858,23.857,23.858c13.156,0,23.858-10.702,23.858-23.858
					C815.925,837.313,805.223,826.611,792.066,826.611z"/>
			</g>
			<g>
				<path style="fill:#AEC3FF;" d="M763.798,781.343h56.507c2.807,0,5.082-2.276,5.082-5.082V566.717
					c0-2.807-2.275-5.082-5.082-5.082h-56.507c-2.807,0-5.082,2.275-5.082,5.082v209.544
					C758.716,779.066,760.991,781.343,763.798,781.343z"/>
			</g>
			<g>
				<path style="fill:#F99746;" d="M770.575,578.396h41.597c2.234,0,4.048-1.811,4.048-4.047v-0.717
					c0-2.235-1.813-4.047-4.048-4.047h-41.597c-2.235,0-4.046,1.812-4.046,4.047v0.717
					C766.529,576.585,768.34,578.396,770.575,578.396z"/>
			</g>
			<g>
				<g>
					<path style="fill:#505ABA;" d="M800.569,709.998v45.285c0,1.217,0.986,2.203,2.202,2.203l0,0c1.217,0,2.203-0.986,2.203-2.203
						v-45.285c0-1.217-0.986-2.203-2.203-2.203l0,0C801.556,707.795,800.569,708.781,800.569,709.998z"/>
				</g>
				<g>
					<path style="fill:#505ABA;" d="M800.569,647.694v45.285c0,1.216,0.986,2.203,2.202,2.203l0,0c1.217,0,2.203-0.987,2.203-2.203
						v-45.285c0-1.217-0.986-2.203-2.203-2.203l0,0C801.556,645.491,800.569,646.477,800.569,647.694z"/>
				</g>
				<g>
					<path style="fill:#505ABA;" d="M775.305,709.998v45.285c0,1.217,0.986,2.203,2.203,2.203l0,0c1.217,0,2.203-0.986,2.203-2.203
						v-45.285c0-1.217-0.986-2.203-2.203-2.203l0,0C776.291,707.795,775.305,708.781,775.305,709.998z"/>
				</g>
				<g>
					<path style="fill:#505ABA;" d="M775.305,647.694v45.285c0,1.216,0.986,2.203,2.203,2.203l0,0c1.217,0,2.203-0.987,2.203-2.203
						v-45.285c0-1.217-0.986-2.203-2.203-2.203l0,0C776.291,645.491,775.305,646.477,775.305,647.694z"/>
				</g>
				<g>
					<path style="fill:#505ABA;" d="M788.451,697.217v58.067c0,1.217,0.986,2.202,2.202,2.202l0,0c1.217,0,2.203-0.985,2.203-2.202
						v-58.067c0-1.216-0.986-2.202-2.203-2.202l0,0C789.438,695.015,788.451,696.001,788.451,697.217z"/>
				</g>
				<g>
					<path style="fill:#505ABA;" d="M788.451,618.888v58.067c0,1.216,0.986,2.202,2.202,2.202l0,0c1.217,0,2.203-0.986,2.203-2.202
						v-58.067c0-1.217-0.986-2.202-2.203-2.202l0,0C789.438,616.685,788.451,617.671,788.451,618.888z"/>
				</g>
			</g>
		</g>
		<g>
			<g>
				<path style="fill:#8C9DF4;" d="M897.906,934.617h86.336c7.597,0,13.755-6.158,13.755-13.756V557.504
					c0-7.598-6.158-13.756-13.755-13.756h-86.336c-7.597,0-13.756,6.158-13.756,13.756v363.357
					C884.15,928.459,890.31,934.617,897.906,934.617z"/>
			</g>
			<g>
				<path style="fill:#AEC3FF;" d="M912.805,781.343h56.507c2.807,0,5.083-2.276,5.083-5.082V566.717
					c0-2.807-2.276-5.082-5.083-5.082h-56.507c-2.807,0-5.082,2.275-5.082,5.082v209.544
					C907.723,779.066,909.998,781.343,912.805,781.343z"/>
			</g>
			<g>
				<path style="fill:#F99746;" d="M919.583,578.396h41.596c2.235,0,4.048-1.811,4.048-4.047v-0.717
					c0-2.235-1.813-4.047-4.048-4.047h-41.596c-2.235,0-4.046,1.812-4.046,4.047v0.717
					C915.537,576.585,917.348,578.396,919.583,578.396z"/>
			</g>
		</g>
		<g>
			<g>
				<path style="fill:#8C9DF4;" d="M1041.708,934.617h86.334c7.598,0,13.757-6.158,13.757-13.756V557.504
					c0-7.598-6.159-13.756-13.757-13.756h-86.334c-7.598,0-13.756,6.158-13.756,13.756v363.357
					C1027.952,928.459,1034.11,934.617,1041.708,934.617z"/>
			</g>
			<g>
				<path style="fill:#AEC3FF;" d="M1056.605,781.343h56.508c2.808,0,5.082-2.276,5.082-5.082V566.717
					c0-2.807-2.274-5.082-5.082-5.082h-56.508c-2.807,0-5.081,2.275-5.081,5.082v209.544
					C1051.524,779.066,1053.799,781.343,1056.605,781.343z"/>
			</g>
			<g>
				<path style="fill:#F99746;" d="M1063.385,578.396h41.597c2.234,0,4.046-1.811,4.046-4.047v-0.717
					c0-2.235-1.812-4.047-4.046-4.047h-41.597c-2.235,0-4.048,1.812-4.048,4.047v0.717
					C1059.337,576.585,1061.149,578.396,1063.385,578.396z"/>
			</g>
		</g>
		<g>
			<g>
				<path style="fill:#8C9DF4;" d="M462.227,1376.725h86.334c7.598,0,13.757-6.159,13.757-13.756V999.61
					c0-7.596-6.159-13.755-13.757-13.755h-86.334c-7.598,0-13.756,6.159-13.756,13.755v363.358
					C448.471,1370.565,454.629,1376.725,462.227,1376.725z"/>
			</g>
			<g>
				<circle style="fill:#505ABA;" cx="505.394" cy="1292.422" r="26.684"/>
			</g>
			<g>
				<path style="fill:#FFFFFF;" d="M505.394,1322.085c-16.271,0-29.509-13.237-29.509-29.509c0-16.271,13.238-29.508,29.509-29.508
					c16.271,0,29.509,13.237,29.509,29.508C534.902,1308.848,521.665,1322.085,505.394,1322.085z M505.394,1268.718
					c-13.156,0-23.858,10.703-23.858,23.858c0,13.156,10.702,23.859,23.858,23.859c13.156,0,23.858-10.703,23.858-23.859
					C529.252,1279.421,518.55,1268.718,505.394,1268.718z"/>
			</g>
			<g>
				<path style="fill:#AEC3FF;" d="M477.124,1223.449h56.509c2.806,0,5.081-2.275,5.081-5.082v-209.544
					c0-2.806-2.275-5.082-5.081-5.082h-56.509c-2.807,0-5.081,2.276-5.081,5.082v209.544
					C472.043,1221.174,474.317,1223.449,477.124,1223.449z"/>
			</g>
			<g>
				<path style="fill:#F99746;" d="M483.902,1020.504H525.5c2.234,0,4.046-1.813,4.046-4.048v-0.716
					c0-2.235-1.812-4.048-4.046-4.048h-41.598c-2.234,0-4.047,1.813-4.047,4.048v0.716
					C479.855,1018.691,481.668,1020.504,483.902,1020.504z"/>
			</g>
			<g>
				<g>
					<path style="fill:#505ABA;" d="M513.896,1152.105v45.285c0,1.217,0.986,2.202,2.202,2.202l0,0c1.216,0,2.203-0.985,2.203-2.202
						v-45.285c0-1.217-0.987-2.202-2.203-2.202l0,0C514.883,1149.903,513.896,1150.889,513.896,1152.105z"/>
				</g>
				<g>
					<path style="fill:#505ABA;" d="M513.896,1089.801v45.286c0,1.217,0.986,2.202,2.202,2.202l0,0c1.216,0,2.203-0.985,2.203-2.202
						v-45.286c0-1.216-0.987-2.202-2.203-2.202l0,0C514.883,1087.599,513.896,1088.585,513.896,1089.801z"/>
				</g>
				<g>
					<path style="fill:#505ABA;" d="M488.633,1152.105v45.285c0,1.217,0.985,2.202,2.201,2.202l0,0c1.217,0,2.203-0.985,2.203-2.202
						v-45.285c0-1.217-0.986-2.202-2.203-2.202l0,0C489.618,1149.903,488.633,1150.889,488.633,1152.105z"/>
				</g>
				<g>
					<path style="fill:#505ABA;" d="M488.633,1089.801v45.286c0,1.217,0.985,2.202,2.201,2.202l0,0c1.217,0,2.203-0.985,2.203-2.202
						v-45.286c0-1.216-0.986-2.202-2.203-2.202l0,0C489.618,1087.599,488.633,1088.585,488.633,1089.801z"/>
				</g>
				<g>
					<path style="fill:#505ABA;" d="M501.778,1139.325v58.065c0,1.217,0.986,2.203,2.203,2.203l0,0c1.216,0,2.202-0.986,2.202-2.203
						v-58.065c0-1.217-0.986-2.203-2.202-2.203l0,0C502.765,1137.122,501.778,1138.108,501.778,1139.325z"/>
				</g>
				<g>
					<path style="fill:#505ABA;" d="M501.778,1060.995v58.066c0,1.217,0.986,2.203,2.203,2.203l0,0c1.216,0,2.202-0.986,2.202-2.203
						v-58.066c0-1.216-0.986-2.202-2.202-2.202l0,0C502.765,1058.793,501.778,1059.779,501.778,1060.995z"/>
				</g>
			</g>
		</g>
		<g>
			<g>
				<path style="fill:#8C9DF4;" d="M604.206,1376.725h86.336c7.596,0,13.756-6.159,13.756-13.756V999.61
					c0-7.596-6.16-13.755-13.756-13.755h-86.336c-7.597,0-13.756,6.159-13.756,13.755v363.358
					C590.45,1370.565,596.609,1376.725,604.206,1376.725z"/>
			</g>
			<g>
				<path style="fill:#505ABA;" d="M674.058,1292.422c0-14.736-11.947-26.684-26.683-26.684c-14.738,0-26.684,11.947-26.684,26.684
					c0,14.737,11.945,26.684,26.684,26.684C662.11,1319.105,674.058,1307.159,674.058,1292.422z"/>
			</g>
			<g>
				<path style="fill:#FFFFFF;" d="M647.375,1322.085c-16.273,0-29.51-13.237-29.51-29.509c0-16.271,13.237-29.508,29.51-29.508
					c16.271,0,29.508,13.237,29.508,29.508C676.883,1308.848,663.646,1322.085,647.375,1322.085z M647.375,1268.718
					c-13.157,0-23.859,10.703-23.859,23.858c0,13.156,10.702,23.859,23.859,23.859c13.154,0,23.856-10.703,23.856-23.859
					C671.231,1279.421,660.529,1268.718,647.375,1268.718z"/>
			</g>
			<g>
				<path style="fill:#AEC3FF;" d="M619.104,1223.449h56.508c2.807,0,5.082-2.275,5.082-5.082v-209.544
					c0-2.806-2.275-5.082-5.082-5.082h-56.508c-2.807,0-5.082,2.276-5.082,5.082v209.544
					C614.022,1221.174,616.298,1223.449,619.104,1223.449z"/>
			</g>
			<g>
				<path style="fill:#F99746;" d="M625.883,1020.504h41.597c2.235,0,4.047-1.813,4.047-4.048v-0.716
					c0-2.235-1.812-4.048-4.047-4.048h-41.597c-2.235,0-4.047,1.813-4.047,4.048v0.716
					C621.836,1018.691,623.647,1020.504,625.883,1020.504z"/>
			</g>
			<g>
				<g>
					<path style="fill:#505ABA;" d="M655.877,1152.105v45.285c0,1.217,0.986,2.202,2.202,2.202l0,0c1.217,0,2.202-0.985,2.202-2.202
						v-45.285c0-1.217-0.985-2.202-2.202-2.202l0,0C656.863,1149.903,655.877,1150.889,655.877,1152.105z"/>
				</g>
				<g>
					<path style="fill:#505ABA;" d="M655.877,1089.801v45.286c0,1.217,0.986,2.202,2.202,2.202l0,0c1.217,0,2.202-0.985,2.202-2.202
						v-45.286c0-1.216-0.985-2.202-2.202-2.202l0,0C656.863,1087.599,655.877,1088.585,655.877,1089.801z"/>
				</g>
				<g>
					<path style="fill:#505ABA;" d="M630.612,1152.105v45.285c0,1.217,0.985,2.202,2.202,2.202l0,0c1.217,0,2.203-0.985,2.203-2.202
						v-45.285c0-1.217-0.986-2.202-2.203-2.202l0,0C631.598,1149.903,630.612,1150.889,630.612,1152.105z"/>
				</g>
				<g>
					<path style="fill:#505ABA;" d="M630.612,1089.801v45.286c0,1.217,0.985,2.202,2.202,2.202l0,0c1.217,0,2.203-0.985,2.203-2.202
						v-45.286c0-1.216-0.986-2.202-2.203-2.202l0,0C631.598,1087.599,630.612,1088.585,630.612,1089.801z"/>
				</g>
				<g>
					<path style="fill:#505ABA;" d="M643.759,1139.325v58.065c0,1.217,0.986,2.203,2.202,2.203l0,0c1.217,0,2.202-0.986,2.202-2.203
						v-58.065c0-1.217-0.985-2.203-2.202-2.203l0,0C644.745,1137.122,643.759,1138.108,643.759,1139.325z"/>
				</g>
				<g>
					<path style="fill:#505ABA;" d="M643.759,1060.995v58.066c0,1.217,0.986,2.203,2.202,2.203l0,0c1.217,0,2.202-0.986,2.202-2.203
						v-58.066c0-1.216-0.985-2.202-2.202-2.202l0,0C644.745,1058.793,643.759,1059.779,643.759,1060.995z"/>
				</g>
			</g>
		</g>
		<g>
			<g>
				<path style="fill:#8C9DF4;" d="M748.898,1376.725h86.336c7.597,0,13.756-6.159,13.756-13.756V999.61
					c0-7.596-6.159-13.755-13.756-13.755h-86.336c-7.597,0-13.756,6.159-13.756,13.755v363.358
					C735.143,1370.565,741.302,1376.725,748.898,1376.725z"/>
			</g>
		</g>
		<g>
			<g>
				<path style="fill:#8C9DF4;" d="M897.906,1376.725h86.336c7.597,0,13.755-6.159,13.755-13.756V999.61
					c0-7.596-6.158-13.755-13.755-13.755h-86.336c-7.597,0-13.756,6.159-13.756,13.755v363.358
					C884.15,1370.565,890.31,1376.725,897.906,1376.725z"/>
			</g>
		</g>
		<g>
			<g>
				<path style="fill:#8C9DF4;" d="M1041.708,1376.725h86.334c7.598,0,13.757-6.159,13.757-13.756V999.61
					c0-7.596-6.159-13.755-13.757-13.755h-86.334c-7.598,0-13.756,6.159-13.756,13.755v363.358
					C1027.952,1370.565,1034.11,1376.725,1041.708,1376.725z"/>
			</g>
		</g>
		<g>
			<path style="fill:#BDD1F9;" d="M418.014,1605.695L418.014,1605.695c-7.559,0-13.686-6.127-13.686-13.686V503.296
				c0-7.559,6.127-13.686,13.686-13.686l0,0c7.559,0,13.686,6.128,13.686,13.686V1592.01
				C431.699,1599.568,425.572,1605.695,418.014,1605.695z"/>
		</g>
		<g>
			
				<rect x="404.328" y="934.667" transform="matrix(-1 -1.224647e-16 1.224647e-16 -1 1599.493 1880.3271)" style="fill:#BDD1F9;" width="790.837" height="10.993"/>
		</g>
		<g>
			
				<rect x="404.328" y="1376.55" transform="matrix(-1 -1.224647e-16 1.224647e-16 -1 1648.5986 2764.0928)" style="fill:#BDD1F9;" width="839.942" height="10.993"/>
		</g>
	</g>
	<g>
		<path style="fill:#D2E2F9;" d="M2085.026,866.721c0,0-75.188,65.269-62.179,78.51c13.01,13.24,78.537-78.77,78.537-78.77
			s98.448,22.169,124.278,47.032c0,0-103.536,39.88-87.669,49.51c15.868,9.63,125.534-26.863,125.534-26.863
			s83.815,44.354,61.241,96.961c-22.574,52.606-58.678,59.255-71.65,53.386s-81.743-61.803-87.085-51.35
			c-5.343,10.454,30.147,62.056,62.749,74.661c0,0-85.338,48.419-120.381,14.793c-35.04-33.627-28.189-66.381-50.223-86.768
			s-44.182-27.649-37.453-12.041c6.729,15.607,49.797,42.807,55.988,73.926c6.19,31.119,13.67,53.196-27.241,32.542
			c-40.911-20.653-100.506-75.194-91.699-112.271c0.385-1.617,0.75-3.159,1.102-4.637c-1.009,2.84-1.102,4.637-1.102,4.637
			c-9.492-1.356-33.531,8.994-51.263,17.5c-2.83,1.596-6.938,3.652-12.711,6.29l0,0c-2.504,1.276-4.536,2.334-5.948,3.076
			c-36.99,21.216-72.869,80.022-72.869,80.022l-9.118-3.936c26.123-67.217,90.496-88.45,90.496-88.45
			c46.823-20.185,70.221-51.582,70.221-51.582s-37.662-91.502,34.658-117.925C2001.24,864.975,2051.521,853.402,2085.026,866.721z"
			/>
	</g>
	<g>
		<g>
			
				<rect x="2357.376" y="1196.043" transform="matrix(-1 -1.224647e-16 1.224647e-16 -1 4779.4189 2600.7051)" style="fill:#35488B;" width="64.667" height="208.619"/>
		</g>
		<g>
			
				<rect x="2201.426" y="1196.043" transform="matrix(-1 -1.224647e-16 1.224647e-16 -1 4558.8018 2600.7051)" style="fill:#2C3A64;" width="155.95" height="208.619"/>
		</g>
		<g>
			<path style="fill:#DDE7FE;" d="M2400.503,1222.1c0-5.961-4.833-10.794-10.794-10.794c-5.96,0-10.793,4.833-10.793,10.794
				c0,5.96,4.833,10.793,10.793,10.793C2395.67,1232.893,2400.503,1228.06,2400.503,1222.1z"/>
		</g>
		<g>
			<path style="fill:#6C7AFF;" d="M2397.342,1222.1c0-4.216-3.417-7.632-7.633-7.632c-4.215,0-7.631,3.416-7.631,7.632
				c0,4.215,3.416,7.631,7.631,7.631C2393.925,1229.73,2397.342,1226.314,2397.342,1222.1z"/>
		</g>
		<g>
			
				<rect x="2374.264" y="1248.102" transform="matrix(-1 -1.224647e-16 1.224647e-16 -1 4778.9443 2551.1504)" style="fill:#8FADEF;" width="30.417" height="54.947"/>
		</g>
	</g>
	<g>
		<g>
			
				<rect x="2236.737" y="1196.043" transform="matrix(-1 -1.224647e-16 1.224647e-16 -1 4538.1416 2600.7051)" style="fill:#35488B;" width="64.667" height="208.619"/>
		</g>
		<g>
			
				<rect x="2080.787" y="1196.043" transform="matrix(-1 -1.224647e-16 1.224647e-16 -1 4317.5244 2600.7051)" style="fill:#2C3A64;" width="155.95" height="208.619"/>
		</g>
		<g>
			<path style="fill:#DDE7FE;" d="M2279.864,1222.1c0-5.961-4.833-10.794-10.794-10.794c-5.96,0-10.793,4.833-10.793,10.794
				c0,5.96,4.833,10.793,10.793,10.793C2275.031,1232.893,2279.864,1228.06,2279.864,1222.1z"/>
		</g>
		<g>
			<path style="fill:#6C7AFF;" d="M2276.703,1222.1c0-4.216-3.417-7.632-7.633-7.632c-4.215,0-7.631,3.416-7.631,7.632
				c0,4.215,3.416,7.631,7.631,7.631C2273.286,1229.73,2276.703,1226.314,2276.703,1222.1z"/>
		</g>
		<g>
			
				<rect x="2253.625" y="1248.102" transform="matrix(-1 -1.224647e-16 1.224647e-16 -1 4537.667 2551.1504)" style="fill:#8FADEF;" width="30.417" height="54.947"/>
		</g>
	</g>
	<g>
		<g>
			
				<rect x="2126.43" y="1196.043" transform="matrix(-1 -1.224647e-16 1.224647e-16 -1 4317.5254 2600.7051)" style="fill:#35488B;" width="64.666" height="208.619"/>
		</g>
		<g>
			
				<rect x="1970.479" y="1196.043" transform="matrix(-1 -1.224647e-16 1.224647e-16 -1 4096.9092 2600.7051)" style="fill:#2C3A64;" width="155.95" height="208.619"/>
		</g>
		<g>
			<path style="fill:#DDE7FE;" d="M2169.556,1222.1c0-5.961-4.831-10.794-10.793-10.794c-5.961,0-10.794,4.833-10.794,10.794
				c0,5.96,4.833,10.793,10.794,10.793C2164.725,1232.893,2169.556,1228.06,2169.556,1222.1z"/>
		</g>
		<g>
			<path style="fill:#6C7AFF;" d="M2166.396,1222.1c0-4.216-3.418-7.632-7.633-7.632s-7.632,3.416-7.632,7.632
				c0,4.215,3.417,7.631,7.632,7.631S2166.396,1226.314,2166.396,1222.1z"/>
		</g>
		<g>
			
				<rect x="2143.316" y="1248.102" transform="matrix(-1 -1.224647e-16 1.224647e-16 -1 4317.0498 2551.1504)" style="fill:#8FADEF;" width="30.417" height="54.947"/>
		</g>
	</g>
	<g>
		<g>
			
				<rect x="1960.765" y="1331.899" transform="matrix(-1 -1.224647e-16 1.224647e-16 -1 4286.8965 2933.7461)" style="fill:#F77D48;" width="365.367" height="269.947"/>
		</g>
		<g>
			
				<rect x="2156.561" y="1331.899" transform="matrix(-1 -1.224647e-16 1.224647e-16 -1 4602.8086 2933.7461)" style="fill:#FF8C64;" width="289.688" height="269.947"/>
		</g>
		<g>
			<path style="fill:#2C3A64;" d="M2280.398,1375.968h75.04c4.646,0,8.446-3.802,8.446-8.447v-1.094
				c0-4.646-3.801-8.447-8.446-8.447h-75.04c-4.646,0-8.445,3.801-8.445,8.447v1.094
				C2271.953,1372.166,2275.753,1375.968,2280.398,1375.968z"/>
		</g>
	</g>
	<g>
		<g>
			<path style="fill:#798EE8;" d="M1410.406,979.09l-49.411,587.496c0,0-5.177,35.613,21.313,35.676
				c43.555,0.104,216.787,0,216.787,0s-32.781-7.413-32.384-24.094c0.468-19.66,57.749-604.637,57.749-604.637L1410.406,979.09z"/>
		</g>
		<g>
			<path style="fill:#AEC3FF;" d="M1615.403,1591.583c-8.565,0.025-176.277,0.309-218.692-0.235
				c-18.484-0.229-21.726-16.436-21.879-26.924c-0.077-5.027,0.561-8.745,0.561-8.745l1.285-15.27l3.275-38.919l2.893-34.385
				l3.718-44.185l3.13-37.294l35.107-417.456l214.058-5.555c0,0-24.125,244.81-41.19,423.011
				c-1.905,19.854-3.717,38.894-5.393,56.664c-0.544,5.674-1.063,11.221-1.574,16.622c-1.583,16.861-3.028,32.343-4.287,46.014
				c-0.664,7.206-1.276,13.9-1.829,20.033c-2.178,24.032-3.453,39.379-3.471,42.297c-0.009,1.701,0.136,3.284,0.416,4.756
				C1585.044,1590.735,1612.188,1591.583,1615.403,1591.583z"/>
		</g>
		<g>
			<polygon style="fill:#AEC3FF;" points="890.558,659.143 1010.911,1142.579 1027.391,1208.787 1083.444,1433.957 
				2124.855,1433.957 1918.247,659.143 			"/>
		</g>
		<g>
			<polygon style="fill:#798EE8;" points="890.556,659.142 873.876,664.702 1061.271,1450.776 1083.446,1433.96 			"/>
		</g>
		<g>
			<polygon style="fill:#849DEF;" points="1061.271,1450.776 2096.271,1450.776 2124.853,1433.96 1083.446,1433.96 			"/>
		</g>
		<g>
			
				<rect x="1424.731" y="1591.583" transform="matrix(-1 -1.224647e-16 1.224647e-16 -1 3073.5566 3193.8154)" style="fill:#AEC3FF;" width="224.094" height="10.649"/>
		</g>
		<g>
			<polygon style="fill:#8C9DF4;" points="1591.858,1450.772 1590.701,1458.913 1379.953,1501.49 1382.846,1467.105 
				1384.224,1450.772 			"/>
		</g>
		<g style="opacity:0.5;">
			<path style="fill:#8C9DF4;" d="M1615.403,1591.583c-8.565,0.025-176.277,0.309-218.692-0.235
				c-18.484-0.229-21.726-16.436-21.879-26.924l209.753-39.464c-2.178,24.032-3.453,39.379-3.471,42.297
				c-0.009,1.701,0.136,3.284,0.416,4.756C1585.044,1590.735,1612.188,1591.583,1615.403,1591.583z"/>
		</g>
		<g>
			<polygon style="fill:#8C9DF4;" points="890.556,659.142 1918.245,659.142 2084.989,1281.85 1045.578,1281.85 			"/>
		</g>
		<g>
			<polygon style="fill:#505ABA;" points="2036.52,1254.865 1074.289,1254.865 1039.903,1117.887 1026.6,1064.887 
				1021.177,1043.274 985.833,902.503 984.008,895.173 965.322,820.766 956.964,787.472 949.837,759.07 944.018,735.909 
				933.119,692.502 1881.485,692.502 1893.453,735.909 1899.835,759.07 1907.664,787.472 1916.839,820.766 1977.311,1040.104 
				1977.311,1040.114 1982.429,1058.698 1984.814,1067.322 2026.559,1218.748 			"/>
		</g>
	</g>
	<g>
		<g>
			<g>
				<path style="fill:#2C3A64;" d="M833.181,993.671c0,0,2.508-27.352-28.052-27.352c0,0,9.26,2.511,14.05,7.535
					c0,0-19.491-11.442-40.702,6.141c-21.212,17.583-8.032,61.681-14.483,70.054c-6.45,8.373-31.569,10.048-28.499,37.121
					c3.07,27.072,79.721,60.981,74.8,83.38c0,0,30.038-44.156,8.559-64.309c0,0,10.47,9.861,11.536,21.585
					c0,0,2.841-22.888-11.722-30.207c-12.888-6.479-23.445-30.169-22.329-34.404C797.455,1058.98,833.181,993.671,833.181,993.671z"
					/>
			</g>
			<g>
				<path style="fill:#FFB27D;" d="M803.095,1124.994c0,0,22.83,94.452,45.242,113.335c13.472,11.349,53.525,37.394,53.525,37.394
					l-16.66,6.046c0,0-55.557-18.761-67.994-33.385c-12.439-14.624-46.492-87.9-46.492-87.9L803.095,1124.994z"/>
			</g>
			<g>
				<path style="fill:#F99746;" d="M934.916,1310.245l-5.365-13.287c-5.754-14.246-19.58-23.573-34.944-23.573h-98.976v62.803
					v268.123h409.43v-268.123H973.371C956.463,1336.188,941.248,1325.923,934.916,1310.245z"/>
			</g>
			<g>
				<path style="fill:#2F539B;" d="M588.518,1290.932c0.201,0.361,0.415,0.734,0.628,1.108c4.997,8.684,16.458,29.963,29.082,53.246
					c5.971,11.047,12.223,22.549,18.153,33.369c10.219,18.675,19.517,35.306,24.939,44.095c5.518,8.938,9.578,15.216,11.222,17.727
					c0.012,0.014,0.012,0.014,0.012,0.014c0.494,0.774,0.603,1.684,0.535,2.591c-0.574,7.882-0.414,15.71,0.361,23.417
					c7.614,75.754,58.695,116.351,58.695,116.351l15.188,2.244c0,0-21.493-79.629-27.826-124.646
					c-1.067-7.627-1.536-13.813-1.162-17.847c1.123-11.729-0.961-28.947-4.902-48.717c-7.013-35.133-19.877-78.252-31.057-112.771
					c-0.708-2.203-22.068-79.468-22.068-79.468c-17.927,15.669-83.314,22.135-83.314,22.135S565.917,1250.737,588.518,1290.932z"/>
			</g>
			<g>
				<path style="fill:#233862;" d="M779.21,1604.311h-63.389c0,0-1.521-9.661,1.791-16.99c3.173-7.034,7.694-7.258,0.578-18.282
					c4.027,4.147,16.976,5.862,26.14,4.63c1.123,1.82,7.24,14.033,10.99,16.729C759.464,1593.373,777.935,1592.313,779.21,1604.311z
					"/>
			</g>
			<g>
				<path style="fill:#233862;" d="M588.518,1290.932c0.201,0.361,0.415,0.734,0.628,1.108c4.997,8.684,32.017,58.589,44.64,81.872
					c-14.628-60.179-4.454-120.358-4.454-120.358L588.518,1290.932z"/>
			</g>
			<g>
				<path style="fill:#2C3A64;" d="M824.534,989.824c0.415-1.665-36.205,16.551-38.062,18.611
					c-17.174,19.049-12.276,43.91-2.449,44.148c6.302,0.154,5.08,10.632,5.08,10.632l70.213-29.702
					C859.316,1033.513,850.861,984.217,824.534,989.824z"/>
			</g>
			<g>
				<path style="fill:#6385DB;" d="M800.94,1110.811c0,0,10.685,21.343,9.35,38.665c0,0-12.883,20.338-46.297,25.486
					C763.993,1174.962,792.722,1110.794,800.94,1110.811z"/>
			</g>
			<g>
				<path style="fill:#2F539B;" d="M637.935,1228.5l0.215-11.855c-23.621,2.979-81.447-28.228-81.447-28.228
					s-24.711,16.437-28.094,63.376c-1.651,22.91-12.098,119.801-13.253,148.734c-0.422,10.486-0.562,17.97-0.609,20.96
					c0.006,0.015,0.005,0.022,0.004,0.029c-0.015,0.912-0.443,1.718-1.005,2.44c-4.888,6.212-9.128,12.794-12.799,19.619
					c-36.044,67.063-17.195,158.186-17.195,158.186l8.37-2.127c0,0,30.477-94.465,50.396-135.326
					c3.38-6.93,6.451-12.32,9.021-15.441c7.489-9.097,15.387-24.545,23.172-43.136C589.424,1370.583,637.935,1228.5,637.935,1228.5z
					"/>
			</g>
			<g>
				<path style="fill:#233862;" d="M534.159,1604.311H470.77c0,0-1.52-9.661,1.791-16.99c3.173-7.034,8.142-10.23,6.952-18.74
					c4.027,4.147,10.593,8.791,19.757,7.559c1.123,1.821,7.249,11.563,10.999,14.258
					C514.412,1593.373,532.884,1592.313,534.159,1604.311z"/>
			</g>
			<g>
				<path style="fill:#739AF0;" d="M759.714,1188.574c-8.514,1.453,1.391,8.221-10.32,9.494
					c-16.667,1.819-33.878,3.063-42.893,6.659c-3.288,1.312-5.487,2.931-6.174,5.001c-3.907,11.75-28.655,31.941-28.655,31.941
					c-110.379-5.024-117.488-54.22-117.488-54.22c71.638-69.575,132.582-107.499,182.951-112.193
					c12.259-1.142,28.781,0.392,36.535,3.844c17.616,7.843,27.271,31.71,27.271,31.71S792.066,1183.056,759.714,1188.574z"/>
			</g>
			<g>
				<path style="fill:#6385DB;" d="M749.394,1198.068c-16.667,1.819-33.878,3.063-42.893,6.659
					c-3.684-55.05,22.295-96.458,22.295-96.458S745.742,1177.235,749.394,1198.068z"/>
			</g>
			<g>
				<path style="fill:#FFB27D;" d="M763.774,1098.951c0,0-41.917-2.289-49.364,24.026c-7.447,26.316,13.973,131.358,18.589,142.2
					c8.405,19.739,50.783,78.525,50.783,78.525l13.584-7.035c0,0-27.281-86.061-33.373-94.576
					C754.433,1228.723,776.32,1110.4,763.774,1098.951z"/>
			</g>
			<g>
				<path style="fill:#FFB27D;" d="M797.366,1336.668c0,0,3.505,3.048,6.324,6.492c2.82,3.444,0.339,4.688,8.437,20.287
					c0,0-0.414,2.166-2.173,1.77c-1.759-0.395-7.868-6.444-11.004-6.01c0,0-2.239,1.845-2.484,7.96
					c-0.23,5.717-0.247,18.369-1.242,20.745c-0.996,2.378-8.269-9.964-11.85-18.881c-3.14-7.819-0.08-34.195-0.08-34.195
					L797.366,1336.668z"/>
			</g>
			<g>
				<path style="fill:#739AF0;" d="M706.144,1158.17c0.109,0.616,39.666,7.277,64.407-5.281c0,0,20.669-64.752-8.868-61.653
					c-29.537,3.098-47.027,12.401-47.771,26.542C713.166,1131.919,706.144,1158.17,706.144,1158.17z"/>
			</g>
			<g>
				<path style="fill:#FFB27D;" d="M772.727,1083.636c0.43,5.239,1.098,11.377,7.955,18.439c5.254,5.411,12.847,9.634,18.181,4.301
					c2.72-2.719,6.391-6.772,8.249-9.966c4.609-7.921,10.099-16.017,10.099-16.017l-23.725-20.785l-1.416-1.242
					c-6.213,10.851-12.324,16.065-17.673,20.055C772.78,1079.626,772.56,1081.627,772.727,1083.636z"/>
			</g>
			<g>
				<path style="fill:#ED985F;" d="M817.208,1080.401c0,0-5.484,8.078-10.095,16.01c-14.745-9.091-14.762-27.346-13.626-36.803
					L817.208,1080.401z"/>
			</g>
			<g>
				<path style="fill:#FFB27D;" d="M817.865,1090.816c0,0-35.804-19.923-23.054-42.028s16.717-39.565,40.114-27.779
					c23.399,11.785,22.937,22.76,20.475,31.173C852.94,1060.596,827.508,1095.429,817.865,1090.816z"/>
			</g>
			<g>
				<path style="fill:#2C3A64;" d="M861.449,1039.289c-1.639-9.815-6.625-10.752-10.102-10.097
					c-13.222-21.867-34.824-13.333-34.824-13.333c-11.538,14.479-28.219,16.95-28.219,16.95s4.154,7.731,21.273,12.517
					c5.229,1.461,11.164,0.575,16.888-1.351c-11.876,6.622-24.297,9.158-24.297,9.158c22.56,2.065,44.022-18.56,46.249-20.766
					c1.04,3.196,2.866,9.888,1.773,14.779c-1.485,6.647-7.387,18.688-3.783,20.247
					C846.406,1067.395,863.909,1054.008,861.449,1039.289z"/>
			</g>
			<g>
				<path style="fill:#FFB27D;" d="M908.414,1275.768c0,0-9.992,7.494-2.462,12.393c7.53,4.898,20.973,6.223,21.028,3.008
					C927.166,1280.381,921.785,1272.708,908.414,1275.768z"/>
			</g>
		</g>
	</g>
	<g>
		<path style="fill:#233862;" d="M2595.159,1609.042H264.013c-1.518,0-2.76-1.241-2.76-2.76v-1.215c0-1.518,1.242-2.76,2.76-2.76
			h2331.146c1.518,0,2.759,1.242,2.759,2.76v1.215C2597.918,1607.801,2596.677,1609.042,2595.159,1609.042z"/>
	</g>
	<g>
		<path style="fill:#F99746;" d="M1147.66,858.055l-8.876-13.104c-9.518-14.052-25.669-23.25-40.822-23.25h-97.616l16.94,61.94
			l67.215,245.783c3.014,11.016,13.022,18.655,24.443,18.655h351.264c16.717,0,28.853-15.9,24.443-32.023l-63.56-232.415h-228.508
			C1175.907,883.641,1158.133,873.517,1147.66,858.055z"/>
	</g>
	<g>
		<g>
			<g>
				<path style="fill:#FFB27D;" d="M1157.789,784.324c-1.53,1.753-1.727,3.713-0.97,5.807c0.001,0.009,0.006,0.021,0.015,0.028
					c1.4,3.873,6.026,8.198,11.4,12.516c0.688,0.556,1.299,1.061,1.83,1.527c0.14,0.122,0.279,0.244,0.411,0.368
					c0.108,0.096,0.213,0.194,0.316,0.286c5.011,4.622,3.124,5.681,12.128,15.062c10.267,10.688,17.336,10.883,19.348,9.91
					c1.701-0.829-1.754-6.497-5.582-12.868c-0.186-0.308-0.367-0.618-0.558-0.929c-0.511-0.848-1.018-1.707-1.523-2.559
					c-4.486-7.668-3.332-11.264-2.264-22.672c0.868-9.269,14.44-51.787,14.44-51.787l-19.68-3.397c0,0-5.938,33.857-12.47,39.07
					c-3.492,2.778-7.4,2.811-10.758,4.871c-0.237,0.143-0.47,0.29-0.697,0.44C1161.269,781.262,1159.326,782.566,1157.789,784.324z"
					/>
			</g>
			<g>
				<path style="fill:#233862;" d="M1157.789,784.324c-1.53,1.753-1.727,3.713-0.97,5.807c0.001,0.009,0.006,0.021,0.015,0.028
					c1.715,3.869,6.225,8.172,11.421,12.477c0.678,0.564,1.277,1.081,1.81,1.566c0.14,0.122,0.279,0.244,0.411,0.368
					c0.108,0.096,0.213,0.194,0.316,0.286c5.011,4.622,3.124,5.681,12.128,15.062c10.267,10.688,17.336,10.883,19.348,9.91
					c1.701-0.829-1.754-6.497-5.582-12.868c-1.999-0.733-11.283-4.509-18.301-13.495c-5.956-7.605-9.999-17.299-14.052-23.25
					c-0.446-0.084-0.711-0.133-1.156-0.217C1161.269,781.262,1159.326,782.566,1157.789,784.324z"/>
			</g>
			<g>
				<path style="fill:#FFB27D;" d="M1316.482,772.087c1.213,6.075,9.872,5.065,19.548,2.704c9.675-2.36,7.375,0.449,21.144-1.07
					c13.77-1.52,17.942-6.651,18.363-8.699c0.376-1.815-6.428-2.459-13.725-3.303c-0.917-0.103-1.839-0.217-2.761-0.331
					c-8.238-1.036-14.271-6.355-21.753-10.724c-7.087-4.138-17.659-20.991-17.659-20.991l-18.884,1.489
					c0,0,9.903,15.053,13.733,21.598c2.254,3.85,2.132,8.939,1.851,12.869C1316.193,767.765,1316.052,769.947,1316.482,772.087z"/>
			</g>
			<g>
				<path style="fill:#233862;" d="M1336.03,774.791c9.675-2.36,7.375,0.449,21.144-1.07c13.77-1.52,17.942-6.651,18.363-8.699
					c0.376-1.815-6.428-2.459-13.725-3.303l-0.068,0.141c0,0-8.259,5.852-19.719,6.122c-9.343,0.224-19.235-2.455-25.686-2.352
					c-0.146,2.136-0.288,4.318,0.143,6.458C1317.695,778.162,1326.354,777.152,1336.03,774.791z"/>
			</g>
			<g>
				<path style="fill:#ED7D2B;" d="M1244.162,651.324l-17.668,47.492l-23.066,62.011c0,0-6.254,0.603-12.242-1.123
					c-5.514-1.596-11.839-5.768-11.839-5.768s6.422-66.589,18.372-104.81c3.063-9.812,6.494-17.746,10.279-22.213
					C1226.51,605.051,1244.162,651.324,1244.162,651.324z"/>
			</g>
			<g>
				<path style="fill:#F99746;" d="M1226.241,575.884c-10.047-3.244-36.265-0.063-64.702,5.074c-7.857,1.42-15.776-2.171-19.912-9
					l0,0l-71.563-5.613c0,0-23.634,52.36-10.717,85.734c1.898,4.904,6.068,7.967,12.505,8.072c0.001,0.003-0.004-0.003,0,0
					c0,0,43.243,0.074,57.073,0.08c35.59,0.013,75.33-24.438,80.47-25.466c8.413-1.679,11.772,15.147,20.179,32.816
					c8.406,17.669,79.051,78.264,79.051,78.264s10.86,0.112,15.349-1.569c4.824-1.808,6.591-4.157,6.591-4.157
					S1252.316,584.306,1226.241,575.884z"/>
			</g>
			<g>
				<path style="fill:#233862;" d="M1134.096,361.806c-5.313-3.166-10.493-3.651-13.669-3.562c-2.208,0.063-4.415-0.081-6.6-0.402
					c-27.313-4.015-43.773,35.653-44.742,47.64c-1.776,22.007-13.42,25.359-29.812,39.137
					c-32.869,27.625-23.245,59.742-5.281,71.681c10.777,7.163,29.782,0.009,29.782,0.009c0.269,0.188,51.978-28.882,77.466-42.904
					C1179.445,467.985,1149.44,370.949,1134.096,361.806z"/>
			</g>
			<g>
				<path style="fill:#FFB27D;" d="M1119.885,461.453c0.111,0.072-12.541,4.387-20.999,0.638
					c-7.956-3.52-13.98-16.614-13.862-16.621c3.62-0.166,7.596-3.33,10.663-24.096l1.542,0.554l25.915,9.335
					c0,0-1.881,8.315-3.098,16.233C1119.021,454.144,1118.469,460.512,1119.885,461.453z"/>
			</g>
			<g>
				<path style="fill:#ED975D;" d="M1123.144,431.263c0,0-1.035,4.487-2.548,12.868c-14.886-2.684-21.273-14.154-23.367-22.203
					L1123.144,431.263z"/>
			</g>
			<g>
				<path style="fill:#FFB27D;" d="M1127,439.519c0,0-35.459-4.771-32.147-26.809c3.312-22.037,0.966-37.494,23.745-35.379
					c22.78,2.115,25.904,11.184,26.589,18.808C1145.871,403.763,1136.31,440.191,1127,439.519z"/>
			</g>
			<g>
				<path style="fill:#233862;" d="M1143.897,384.058c0,0-22.707,19.555-38.147,21.127c-15.441,1.572-21.285-3.387-21.285-3.387
					s9.103-7.553,14.584-19.746c1.615-3.593,5.028-6.061,8.953-6.398C1119.028,374.707,1139.929,374.28,1143.897,384.058z"/>
			</g>
			<g>
				<path style="fill:#233862;" d="M1129.709,382.302c0,0,7.591,7.345,9.98,12.792c2.308,5.257,2.994,17.827,1.154,22.818
					c0,0,11.841-23.003,5.146-34.183C1138.89,371.874,1129.709,382.302,1129.709,382.302z"/>
			</g>
			<g>
				<path style="fill:#2F539B;" d="M1149.726,513.7c-1.097,71.781-0.313,56.782-8.167,63.591c-1.894,1.639-7.212,2.614-14.214,3.074
					c-22.01,1.454-60.702-2.185-62.172-6.254c-5.071-14.076-1.485-18.447-5.714-39.997c-0.441-2.292-0.986-4.773-1.627-7.475
					c-3.526-14.802-6.962-19.837,5.575-43.609c11.37-21.533,23.181-39.011,24.242-38.379c29.972,17.806,32.395,2.849,32.395,2.849
					S1150.264,478.688,1149.726,513.7z"/>
			</g>
			<g>
				<path style="fill:#F99746;" d="M1226.494,698.816l-23.066,62.011c0,0-6.254,0.603-12.242-1.123
					c-5.514-1.596-11.839-5.768-11.839-5.768s6.422-66.589,18.372-104.81L1226.494,698.816z"/>
			</g>
			<g>
				<path style="fill:#2F539B;" d="M1120.046,447.496c0,0,30.845,5.24,34.463,18.523c3.616,13.281,15.512,93.899,15.512,93.899
					s-8.7,8.491-15.941,1.244c-7.241-7.246-22.772-75.432-22.772-75.432L1120.046,447.496z"/>
			</g>
			<g>
				<path style="fill:#233862;" d="M1127.345,580.365c-22.01,1.454-60.702-2.185-62.172-6.254
					c-5.071-14.076-1.485-18.447-5.714-39.997l10.627-29.892c0,0-1.768,33.289,8.046,42.049c9.805,8.759,40.19,16.916,44.96,24.232
					C1125.393,574.017,1126.904,577.538,1127.345,580.365z"/>
			</g>
			<g>
				<path style="fill:#FFB27D;" d="M1102.131,566.356c0,0,21.718-4.826,25.221-2.899c3.503,1.928,12.064,8.948,13.135,11.392
					c1.072,2.442-7.799-1.856-10.685-2.632c-1.869-0.502-6.79,1.205-9.226,2.018c-10.249,3.412-16.529,1.653-16.529,1.653
					L1102.131,566.356z"/>
			</g>
			<g>
				<path style="fill:#2F539B;" d="M1087.631,444.636c0,0-29.158,1.786-39.257,15.86c-14.215,19.813-42.431,104.259-26.281,115.528
					c18.188,12.691,82.795,3.348,82.795,3.348s2.152-10.049-0.837-14.911c-2.988-4.861-51.595-12.729-53.838-14.974
					c-2.242-2.244,28.059-43.738,28.062-50.468C1078.276,492.288,1087.631,444.636,1087.631,444.636z"/>
			</g>
			<g>
				<path style="fill:#FFB27D;" d="M1128.4,569.502c0,0,4.548,5.87,6.039,6.57c1.491,0.701,2.455,0.527,2.455,0.527l-3.063-5.521
					L1128.4,569.502z"/>
			</g>
			<g>
				<path style="fill:#FFB27D;" d="M1127.352,563.457l13.226,6.428c0,0-0.563,0.921-2.191,0.846
					c-1.629-0.074-5.736-1.578-5.736-1.578L1127.352,563.457z"/>
			</g>
		</g>
		<g>
			<polygon style="fill:#233862;" points="1240.307,578.598 1102.128,578.549 1102.126,581.599 1239.079,581.646 			"/>
		</g>
		<g>
			<polygon style="fill:#233862;" points="1134.438,581.61 1239.079,581.646 1270.584,503.38 1166.104,503.344 			"/>
		</g>
		<g>
			<path style="fill:#FFFFFF;" d="M1212.678,542.499c0.79-2.752-0.801-4.982-3.552-4.983c-2.752-0.001-5.623,2.228-6.413,4.979
				c-0.79,2.752,0.8,4.982,3.552,4.984C1209.017,547.481,1211.888,545.25,1212.678,542.499z"/>
		</g>
	</g>
	<g style="opacity:0.5;">
		<polygon style="fill:#8C9DF4;" points="1728.825,840.398 1699.883,803.424 1698.516,801.682 1696.885,801.381 1563.305,776.803 
			1518.352,1021.134 1691.525,1052.994 1729.977,843.983 1730.293,842.273 		"/>
	</g>
	<g>
		<g>
			<polygon style="fill:#8C9DF4;" points="1641.936,764.59 1642.001,766.328 1650.242,978.685 1474.294,985.512 1464.665,737.267 
				1600.387,732.005 1602.042,731.94 1603.758,733.343 1640.093,763.081 			"/>
		</g>
	</g>
	<g>
		<g>
			<path style="fill:#233862;" d="M1526.197,825.4l-293.626,16.364c-0.594,0.033-1.048,0.541-1.015,1.134l21.43,384.499
				c0.032,0.593,0.541,1.048,1.134,1.015l293.207-16.342c0.594-0.033,1.047-0.541,1.014-1.134l-21.452-384.919
				C1526.868,825.657,1526.559,825.38,1526.197,825.4z"/>
		</g>
		<g>
			<path style="fill:#EBF3FA;" d="M1525.656,1199.93l-248.714,15.606c-7.461,0.469-13.889-5.2-14.356-12.66l-21.206-337.951
				c-0.469-7.461,5.2-13.888,12.661-14.356l248.713-15.608c7.461-0.467,13.89,5.201,14.356,12.662l21.207,337.95
				C1538.785,1193.034,1533.117,1199.462,1525.656,1199.93z"/>
		</g>
		<g>
			<g>
				<path style="fill:#BDD1F9;" d="M1427.501,890.705l-156.458,9.817c-0.079,0.005-0.148-0.056-0.153-0.136l-0.245-3.908
					c-0.006-0.08,0.055-0.149,0.135-0.154l156.459-9.818c0.079-0.005,0.148,0.056,0.153,0.136l0.245,3.909
					C1427.643,890.631,1427.581,890.7,1427.501,890.705z"/>
			</g>
			<g>
				<path style="fill:#BDD1F9;" d="M1429.609,924.297l-156.459,9.817c-0.079,0.006-0.148-0.056-0.153-0.135l-0.245-3.91
					c-0.006-0.079,0.056-0.148,0.136-0.153l156.458-9.818c0.079-0.004,0.149,0.057,0.153,0.136l0.246,3.91
					C1429.75,924.223,1429.689,924.292,1429.609,924.297z"/>
			</g>
			<g>
				<path style="fill:#BDD1F9;" d="M1488.332,903.75l-216.235,13.569c-0.079,0.005-0.148-0.056-0.153-0.136l-0.245-3.91
					c-0.005-0.08,0.057-0.148,0.136-0.153l216.234-13.568c0.08-0.006,0.148,0.056,0.154,0.135l0.245,3.91
					C1488.473,903.677,1488.412,903.745,1488.332,903.75z"/>
			</g>
			<g>
				<path style="fill:#BDD1F9;" d="M1391.799,1031.086l-106.45,6.681c-0.065,0.003-0.123-0.047-0.127-0.112l-0.249-3.961
					c-0.004-0.065,0.047-0.122,0.113-0.126l106.449-6.681c0.065-0.003,0.123,0.047,0.127,0.112l0.248,3.961
					C1391.914,1031.025,1391.864,1031.082,1391.799,1031.086z"/>
			</g>
			<g>
				<path style="fill:#BDD1F9;" d="M1431.431,1011.737l-147.136,9.232c-0.065,0.005-0.123-0.046-0.128-0.111l-0.248-3.96
					c-0.004-0.065,0.046-0.122,0.112-0.127l147.137-9.232c0.065-0.004,0.122,0.046,0.127,0.111l0.248,3.961
					C1431.547,1011.677,1431.497,1011.733,1431.431,1011.737z"/>
			</g>
			<g>
				<path style="fill:#BDD1F9;" d="M1442.276,1046.688l-156.459,9.817c-0.079,0.006-0.147-0.056-0.153-0.135l-0.245-3.91
					c-0.005-0.08,0.056-0.148,0.136-0.153l156.458-9.818c0.079-0.005,0.148,0.056,0.153,0.136l0.246,3.91
					C1442.416,1046.614,1442.355,1046.684,1442.276,1046.688z"/>
			</g>
			<g>
				<path style="fill:#BDD1F9;" d="M1460.829,1062.387l-173.972,10.916c-0.072,0.005-0.134-0.05-0.139-0.121l-0.247-3.939
					c-0.005-0.072,0.051-0.134,0.121-0.139l173.973-10.917c0.071-0.004,0.134,0.051,0.138,0.122l0.248,3.939
					C1460.955,1062.319,1460.9,1062.382,1460.829,1062.387z"/>
			</g>
			<g>
				<path style="fill:#BDD1F9;" d="M1401.625,1095.71l-111.969,7.026c-0.067,0.004-0.125-0.048-0.131-0.115l-0.248-3.953
					c-0.003-0.067,0.048-0.127,0.115-0.131l111.969-7.026c0.067-0.004,0.127,0.048,0.13,0.115l0.248,3.954
					C1401.744,1095.647,1401.691,1095.706,1401.625,1095.71z"/>
			</g>
			<g>
				<path style="fill:#BDD1F9;" d="M1403.733,1129.302l-111.969,7.026c-0.067,0.004-0.126-0.047-0.131-0.114l-0.247-3.954
					c-0.005-0.068,0.047-0.127,0.113-0.131l111.97-7.026c0.067-0.004,0.126,0.048,0.13,0.115l0.248,3.954
					C1403.852,1129.239,1403.801,1129.297,1403.733,1129.302z"/>
			</g>
			<g>
				<path style="fill:#BDD1F9;" d="M1445.473,1109.821l-154.762,9.711c-0.067,0.005-0.127-0.048-0.131-0.115l-0.248-3.954
					c-0.004-0.067,0.047-0.125,0.115-0.13l154.762-9.711c0.067-0.005,0.125,0.047,0.13,0.114l0.248,3.954
					C1445.592,1109.758,1445.54,1109.816,1445.473,1109.821z"/>
			</g>
		</g>
		<g>
			<path style="fill:#FF8C64;" d="M1446.202,808.648l-136.931,7.632c-9.027,0.504-15.967,7.707-15.5,16.091l1.153,20.692
				c0.108,1.938,1.887,3.414,3.974,3.299l162.065-9.032c2.087-0.117,3.69-1.781,3.583-3.72l-1.154-20.692
				C1462.926,814.533,1455.229,808.144,1446.202,808.648z"/>
		</g>
	</g>
	<g>
		<g>
			<path style="fill:#FFB27D;" d="M1693.598,974.841c0,0-2.846-6.4-4.689-9.432c-1.843-3.03-9.718-11.911-11.059-9.9
				c-1.339,2.011-6.701,15.543-3.852,19.332c2.848,3.788-0.186,10.382,13.98,14.373L1693.598,974.841z"/>
		</g>
		<g>
			<path style="fill:#ED7D2B;" d="M1851.019,934.426c0,0-72.515,60.53-100.79,54.927c-22.109-4.382-57.063-15.47-57.063-15.47
				s-9.226,8.775-6.616,19.293c0,0,44.533,41.902,76.26,42.173c49.592,0.424,72.983-24.577,72.983-24.577L1851.019,934.426z"/>
		</g>
		<g>
			<path style="fill:#113C68;" d="M1978.194,1572.895c0,0-2.106,33.958-8.676,34.445c-0.873,0.064-33.321,0.064-33.321,0.064
				l-41.42-0.24c0,0,0.27-9.98,12.378-12.091c12.107-2.109,32.373-10.618,39.708-26.621
				C1954.578,1551.618,1978.194,1572.895,1978.194,1572.895z"/>
		</g>
		<g>
			<path style="fill:#2A4E96;" d="M1980.581,1575.252c0,0-12.591,4.213-22.422,4.213c-10.966,0-20.933-2.987-20.933-2.987
				s-2.371-22.926-15.417-73.438c-6.84-26.475-16.606-60.517-30.502-102.817c-38.421-116.906-50.104-185.296-51.17-191.772
				c-0.057-0.341-0.08-0.511-0.08-0.511l0.125-0.058l118.12-51.862c0,0-14.6,161.123,4.027,222.968
				c2.608,8.645,4.843,18.718,6.76,29.63C1980.854,1475.792,1980.581,1575.252,1980.581,1575.252z"/>
		</g>
		<g>
			<path style="fill:#233862;" d="M1921.81,1503.039c-6.84-26.475-16.606-60.517-30.502-102.817
				c-38.421-116.906-50.104-185.296-51.17-191.772c0.011-0.193,0.022-0.375,0.045-0.568l118.12-51.862
				c0,0-14.6,161.123,4.027,222.968C1964.938,1387.631,1921.81,1503.039,1921.81,1503.039z"/>
		</g>
		<g>
			<path style="fill:#15447C;" d="M1885.937,1572.895c0,0-2.106,33.958-8.676,34.445c-0.873,0.064-33.321,0.064-33.321,0.064
				l-41.42-0.24c0,0,0.271-9.98,12.378-12.091c12.107-2.109,32.373-10.618,39.708-26.621
				C1862.32,1551.618,1885.937,1572.895,1885.937,1572.895z"/>
		</g>
		<g>
			<path style="fill:#2A4E96;" d="M1818.967,1159.815c0,0-1.535,104.409,16.53,232.606
				c18.063,128.196,11.941,182.613,11.941,182.613s12.411,4.021,17.42,4.43c12.761,1.039,25.846-2.991,25.846-2.991
				s25.857-128.244,18.443-192.409c-7.413-64.165,35.407-220.18,35.407-220.18L1818.967,1159.815z"/>
		</g>
		<g>
			<path style="fill:#FFB27D;" d="M1902.723,915.482l-23.057,15.12l-21.003-5.939c-3.839-5.478-4.854-16.034-4.911-25.18
				c-0.057-9.079,0.824-16.769,0.824-16.769l31.107-13.729l11.608-5.115c-0.034,0.181-0.904,9.529-1.028,10.896
				C1894.096,899.009,1902.723,915.482,1902.723,915.482z"/>
		</g>
		<g>
			<path style="fill:#F99746;" d="M1818.437,1188.842c28.7,27.71,137.313,23.049,144.007-7.48
				c6.682-30.529-7.301-259.888-56.324-274.295c-10.173-2.99-64.559,14.589-64.559,14.589s-8.534,22.324-14.132,50.747
				c-1.085,5.533-4.257,64.144-6.629,118.979c-1.107,25.645-2.043,50.471-2.522,68.645
				C1817.841,1177.052,1817.819,1188.235,1818.437,1188.842z"/>
		</g>
		<g>
			<path style="fill:#FCA56B;" d="M1893.938,875.195c-6.312,10.67-28.454,20.008-40.186,24.288
				c-0.057-9.079,0.824-16.769,0.824-16.769l31.107-13.729C1892.561,868.896,1896.749,870.431,1893.938,875.195z"/>
		</g>
		<g>
			<path style="fill:#FFB27D;" d="M1842.842,880.821c0,0,50.123,15.634,59.38-15.729c9.256-31.364,21.959-50.469-9.651-61.778
				c-31.61-11.309-41.389-1.184-47.024,8.533S1830.043,875.945,1842.842,880.821z"/>
		</g>
		<g>
			<path style="fill:#163560;" d="M1847.515,808.825c0,0,3.196,36.498,10.743,34.914c7.548-1.585,15.856-4.975,14.752,6.028
				c-1.105,11.001,7.339,29.86,18.223,29.815c23.343-0.096,48.705-59.992,42.314-71.351
				C1915.109,775.46,1820.865,768.847,1847.515,808.825z"/>
		</g>
		<g>
			<path style="fill:#ED7D2B;" d="M1854.888,907.856c0.647-0.271,37.313-16.719,41.601-15.304
				c4.288,1.416,9.633,14.514,9.633,14.514l-64.563,14.596C1841.558,921.662,1846.641,911.33,1854.888,907.856z"/>
		</g>
		<g>
			<g>
				<path style="fill:#1F4D84;" d="M1626.615,1085.485l205.538,193.516c4.028,3.794,9.109,5.002,11.29,2.686l6.938-7.369
					c2.18-2.315,0.668-7.313-3.36-11.107l-205.538-193.516c-4.029-3.794-9.109-5.003-11.289-2.687l-6.938,7.369
					C1621.074,1076.693,1622.586,1081.691,1626.615,1085.485z"/>
			</g>
			<g>
				<path style="fill:#739AF0;" d="M1741.959,1194.082l90.194,84.919c4.028,3.794,9.109,5.002,11.29,2.686l6.938-7.369
					c2.18-2.315,0.668-7.313-3.36-11.107l-90.194-84.919L1741.959,1194.082z"/>
			</g>
			<g>
				<path style="fill:#1F4D84;" d="M1637.07,855.018c-60.963-64.802-162.912-67.896-227.703-6.933
					c-0.857,0.801-1.704,1.614-2.529,2.438c-62.352,61.211-64.587,161.32-4.427,225.274c60.963,64.79,162.925,67.907,227.726,6.945
					c21.217-19.964,35.828-44.319,43.721-70.323C1690.105,959,1678.08,898.602,1637.07,855.018z M1621.42,1073.483
					c-37.714,35.489-89.089,47.401-135.982,36.302c-27.302-6.47-53.081-20.73-73.755-42.704
					c-56.152-59.687-53.296-153.586,6.391-209.738c21.973-20.674,48.575-33.343,76.239-38.13
					c47.469-8.221,98.021,6.809,133.498,44.521C1683.974,923.432,1681.105,1017.331,1621.42,1073.483z"/>
			</g>
			<g style="opacity:0.5;">
				<g>
					<path style="fill:#B3CFF9;" d="M1411.679,1067.08c20.673,21.975,46.455,36.237,73.762,42.71
						c46.886,11.094,98.268-0.822,135.984-36.308c59.684-56.151,62.547-150.056,6.39-209.746
						c-35.479-37.71-86.032-52.74-133.5-44.519c-27.664,4.784-54.272,17.456-76.24,38.123
						C1358.391,913.492,1355.526,1007.396,1411.679,1067.08z"/>
				</g>
			</g>
		</g>
		<g>
			<path style="fill:#ED7D2B;" d="M1818.277,1160.025c113.254-80.702,103.836-188.39,103.836-188.39
				c-41.394,23.347-82.468,74.967-101.313,119.745C1819.692,1117.025,1818.757,1141.852,1818.277,1160.025z"/>
		</g>
		<g>
			<g>
				<path style="fill:#FFB27D;" d="M1706.5,1123.275c-7.986-1.844-13.35-7.881-14.465-8.937c0,0-3.405,0.233,0.559,7.498
					c0.332,0.608,1.068,2.169,1.624,3.273c0.227,0.452-0.089,0.976-0.593,1.014c-4.609,0.351-9.24-1.473-18.12,0.378
					c-1.226,0.256-1.582,3.189-1.534,4.44c0.08,2.116-0.073,4.489,2.386,7.734c1.431,1.888,5.423,3.918,14.311,7.496
					c3.388,1.362,13.069,0.334,22.144-2.782l7.251-3.357l-2.249-13.476l-1.821,0.382
					C1713.099,1127.546,1709.517,1124.015,1706.5,1123.275z"/>
			</g>
			<g>
				<path style="fill:#F99746;" d="M1886.966,921.662c0,0,101.76,19.376-29.939,166.737
					c-21.063,23.568-134.861,54.254-134.861,54.254s-11.542-9.819-5.723-17.771c0,0,78.353-56.897,95.593-65.944
					c7.756-4.068,30.1-90.813,42.742-111.704S1886.966,921.662,1886.966,921.662z"/>
			</g>
		</g>
		<g>
			<path style="fill:#FFB27D;" d="M1690.839,976.629c0,0-3.329-6.362-3.979-9.717c-0.65-3.356-4.841-13.142-6.567-14.865
				c-0.691-0.689-2.971,0.203-3.239,3.168c-0.117,1.292,0.516,3.639,1.635,6.437c1.82,4.555,1.521,10.73,2.153,12.79
				C1682.418,979.568,1690.839,976.629,1690.839,976.629z"/>
		</g>
	</g>
</g>
</svg>
